<svg width="594" height="48" viewBox="0 0 594 48" fill="none" xmlns="http://www.w3.org/2000/svg">
<g clip-path="url(#clip0_232_397)">
<g clip-path="url(#clip1_232_397)">
<path d="M10.8672 30H9V24.8438H3.73438V30H1.85938V18.5781H3.73438V23.25H9V18.5781H10.8672V30ZM21.3594 25.6562C21.3594 26.375 21.2656 27.013 21.0781 27.5703C20.8906 28.1276 20.6172 28.599 20.2578 28.9844C19.8984 29.3646 19.4661 29.6562 18.9609 29.8594C18.4557 30.0573 17.8854 30.1562 17.25 30.1562C16.6562 30.1562 16.112 30.0573 15.6172 29.8594C15.1224 29.6562 14.6927 29.3646 14.3281 28.9844C13.9688 28.599 13.6901 28.1276 13.4922 27.5703C13.2943 27.013 13.1953 26.375 13.1953 25.6562C13.1953 24.7031 13.3594 23.8958 13.6875 23.2344C14.0208 22.5677 14.4948 22.0599 15.1094 21.7109C15.724 21.362 16.4557 21.1875 17.3047 21.1875C18.1016 21.1875 18.8047 21.362 19.4141 21.7109C20.0234 22.0599 20.5 22.5677 20.8438 23.2344C21.1875 23.901 21.3594 24.7083 21.3594 25.6562ZM15.0859 25.6562C15.0859 26.2865 15.1615 26.8255 15.3125 27.2734C15.4688 27.7214 15.7083 28.0651 16.0312 28.3047C16.3542 28.5391 16.7708 28.6562 17.2812 28.6562C17.7917 28.6562 18.2083 28.5391 18.5312 28.3047C18.8542 28.0651 19.0911 27.7214 19.2422 27.2734C19.3932 26.8255 19.4688 26.2865 19.4688 25.6562C19.4688 25.026 19.3932 24.4922 19.2422 24.0547C19.0911 23.612 18.8542 23.276 18.5312 23.0469C18.2083 22.8125 17.7891 22.6953 17.2734 22.6953C16.513 22.6953 15.9583 22.9505 15.6094 23.4609C15.2604 23.9714 15.0859 24.7031 15.0859 25.6562ZM33.2422 21.1875C34.2109 21.1875 34.9401 21.4375 35.4297 21.9375C35.9245 22.4375 36.1719 23.2396 36.1719 24.3438V30H34.3359V24.6719C34.3359 24.0156 34.2083 23.5208 33.9531 23.1875C33.6979 22.8542 33.3099 22.6875 32.7891 22.6875C32.0599 22.6875 31.5339 22.9219 31.2109 23.3906C30.8932 23.8542 30.7344 24.5286 30.7344 25.4141V30H28.8984V24.6719C28.8984 24.2344 28.8411 23.8698 28.7266 23.5781C28.6172 23.2812 28.4479 23.0599 28.2188 22.9141C27.9896 22.763 27.7005 22.6875 27.3516 22.6875C26.8464 22.6875 26.4427 22.8021 26.1406 23.0312C25.8438 23.2604 25.6302 23.599 25.5 24.0469C25.3698 24.4896 25.3047 25.0339 25.3047 25.6797V30H23.4688V21.3516H24.8984L25.1562 22.5156H25.2578C25.4349 22.2135 25.6536 21.9661 25.9141 21.7734C26.1797 21.5755 26.474 21.4297 26.7969 21.3359C27.1198 21.237 27.4557 21.1875 27.8047 21.1875C28.4505 21.1875 28.9948 21.3021 29.4375 21.5312C29.8802 21.7552 30.2109 22.099 30.4297 22.5625H30.5703C30.8411 22.0938 31.2188 21.7474 31.7031 21.5234C32.1875 21.2995 32.7005 21.1875 33.2422 21.1875ZM42.1797 21.1875C42.9505 21.1875 43.612 21.3464 44.1641 21.6641C44.7161 21.9818 45.1406 22.4323 45.4375 23.0156C45.7344 23.599 45.8828 24.2969 45.8828 25.1094V26.0938H40.1094C40.1302 26.9323 40.3542 27.5781 40.7812 28.0312C41.2135 28.4844 41.8177 28.7109 42.5938 28.7109C43.1458 28.7109 43.6406 28.6589 44.0781 28.5547C44.5208 28.4453 44.9766 28.2865 45.4453 28.0781V29.5703C45.013 29.7734 44.5729 29.9219 44.125 30.0156C43.6771 30.1094 43.1406 30.1562 42.5156 30.1562C41.6667 30.1562 40.9193 29.9922 40.2734 29.6641C39.6328 29.3307 39.1302 28.8359 38.7656 28.1797C38.4062 27.5234 38.2266 26.7083 38.2266 25.7344C38.2266 24.7656 38.3906 23.9427 38.7188 23.2656C39.0469 22.5885 39.5078 22.0729 40.1016 21.7188C40.6953 21.3646 41.388 21.1875 42.1797 21.1875ZM42.1797 22.5703C41.6016 22.5703 41.1328 22.7578 40.7734 23.1328C40.4193 23.5078 40.2109 24.0573 40.1484 24.7812H44.0859C44.0807 24.349 44.0078 23.9661 43.8672 23.6328C43.7318 23.2995 43.5234 23.0391 43.2422 22.8516C42.9661 22.6641 42.612 22.5703 42.1797 22.5703Z" fill="white"/>
<g clip-path="url(#clip2_232_397)">
<path d="M215.312 18.5781C216.786 18.5781 217.862 18.8802 218.539 19.4844C219.216 20.0885 219.555 20.9349 219.555 22.0234C219.555 22.5182 219.477 22.9896 219.32 23.4375C219.169 23.8802 218.919 24.2734 218.57 24.6172C218.221 24.9557 217.76 25.224 217.188 25.4219C216.62 25.6198 215.919 25.7188 215.086 25.7188H213.867V30H211.992V18.5781H215.312ZM215.188 20.1328H213.867V24.1562H214.891C215.479 24.1562 215.979 24.0885 216.391 23.9531C216.802 23.8125 217.115 23.5911 217.328 23.2891C217.542 22.987 217.648 22.5885 217.648 22.0938C217.648 21.4323 217.448 20.9401 217.047 20.6172C216.651 20.2943 216.031 20.1328 215.188 20.1328ZM225.039 21.1875C226.133 21.1875 226.958 21.4297 227.516 21.9141C228.078 22.3984 228.359 23.1536 228.359 24.1797V30H227.055L226.703 28.7734H226.641C226.396 29.0859 226.143 29.3438 225.883 29.5469C225.622 29.75 225.32 29.901 224.977 30C224.638 30.1042 224.224 30.1562 223.734 30.1562C223.219 30.1562 222.758 30.0625 222.352 29.875C221.945 29.6823 221.625 29.3906 221.391 29C221.156 28.6094 221.039 28.1146 221.039 27.5156C221.039 26.625 221.37 25.9557 222.031 25.5078C222.698 25.0599 223.703 24.8125 225.047 24.7656L226.547 24.7109V24.2578C226.547 23.6589 226.406 23.2318 226.125 22.9766C225.849 22.7214 225.458 22.5938 224.953 22.5938C224.521 22.5938 224.102 22.6562 223.695 22.7812C223.289 22.9062 222.893 23.0599 222.508 23.2422L221.914 21.9453C222.336 21.7214 222.815 21.5391 223.352 21.3984C223.893 21.2578 224.456 21.1875 225.039 21.1875ZM226.539 25.8672L225.422 25.9062C224.505 25.9375 223.862 26.0938 223.492 26.375C223.122 26.6562 222.938 27.0417 222.938 27.5312C222.938 27.9583 223.065 28.2708 223.32 28.4688C223.576 28.6615 223.911 28.7578 224.328 28.7578C224.964 28.7578 225.49 28.5781 225.906 28.2188C226.328 27.8542 226.539 27.3203 226.539 26.6172V25.8672ZM233.398 33.8438C232.227 33.8438 231.328 33.6328 230.703 33.2109C230.078 32.7891 229.766 32.1979 229.766 31.4375C229.766 30.9062 229.932 30.4557 230.266 30.0859C230.599 29.7214 231.076 29.4688 231.695 29.3281C231.461 29.224 231.258 29.0625 231.086 28.8438C230.919 28.6198 230.836 28.3724 230.836 28.1016C230.836 27.7786 230.927 27.5026 231.109 27.2734C231.292 27.0443 231.565 26.8229 231.93 26.6094C231.477 26.4167 231.112 26.1042 230.836 25.6719C230.565 25.2344 230.43 24.7214 230.43 24.1328C230.43 23.5078 230.562 22.9766 230.828 22.5391C231.094 22.0964 231.482 21.7604 231.992 21.5312C232.503 21.2969 233.12 21.1797 233.844 21.1797C234 21.1797 234.169 21.1901 234.352 21.2109C234.539 21.2266 234.711 21.2474 234.867 21.2734C235.029 21.2943 235.151 21.3177 235.234 21.3438H238.227V22.3672L236.758 22.6406C236.898 22.8385 237.01 23.0651 237.094 23.3203C237.177 23.5703 237.219 23.8438 237.219 24.1406C237.219 25.0365 236.909 25.7422 236.289 26.2578C235.674 26.7682 234.826 27.0234 233.742 27.0234C233.482 27.013 233.229 26.9922 232.984 26.9609C232.797 27.0755 232.654 27.2031 232.555 27.3438C232.456 27.4792 232.406 27.6328 232.406 27.8047C232.406 27.9453 232.456 28.0599 232.555 28.1484C232.654 28.2318 232.799 28.2943 232.992 28.3359C233.19 28.3776 233.43 28.3984 233.711 28.3984H235.203C236.151 28.3984 236.875 28.599 237.375 29C237.875 29.401 238.125 29.9896 238.125 30.7656C238.125 31.75 237.719 32.5078 236.906 33.0391C236.094 33.5755 234.924 33.8438 233.398 33.8438ZM233.469 32.5547C234.109 32.5547 234.648 32.4922 235.086 32.3672C235.523 32.2422 235.854 32.0625 236.078 31.8281C236.302 31.599 236.414 31.3255 236.414 31.0078C236.414 30.7266 236.344 30.5104 236.203 30.3594C236.062 30.2083 235.852 30.1042 235.57 30.0469C235.289 29.9896 234.94 29.9609 234.523 29.9609H233.164C232.826 29.9609 232.526 30.013 232.266 30.1172C232.005 30.2266 231.802 30.3828 231.656 30.5859C231.516 30.7891 231.445 31.0339 231.445 31.3203C231.445 31.7161 231.62 32.0208 231.969 32.2344C232.323 32.4479 232.823 32.5547 233.469 32.5547ZM233.828 25.8203C234.365 25.8203 234.763 25.6745 235.023 25.3828C235.284 25.0859 235.414 24.6693 235.414 24.1328C235.414 23.5495 235.279 23.112 235.008 22.8203C234.742 22.5286 234.346 22.3828 233.82 22.3828C233.305 22.3828 232.911 22.5312 232.641 22.8281C232.375 23.125 232.242 23.5651 232.242 24.1484C232.242 24.6745 232.375 25.0859 232.641 25.3828C232.911 25.6745 233.307 25.8203 233.828 25.8203ZM243.25 21.1875C244.021 21.1875 244.682 21.3464 245.234 21.6641C245.786 21.9818 246.211 22.4323 246.508 23.0156C246.805 23.599 246.953 24.2969 246.953 25.1094V26.0938H241.18C241.201 26.9323 241.424 27.5781 241.852 28.0312C242.284 28.4844 242.888 28.7109 243.664 28.7109C244.216 28.7109 244.711 28.6589 245.148 28.5547C245.591 28.4453 246.047 28.2865 246.516 28.0781V29.5703C246.083 29.7734 245.643 29.9219 245.195 30.0156C244.747 30.1094 244.211 30.1562 243.586 30.1562C242.737 30.1562 241.99 29.9922 241.344 29.6641C240.703 29.3307 240.201 28.8359 239.836 28.1797C239.477 27.5234 239.297 26.7083 239.297 25.7344C239.297 24.7656 239.461 23.9427 239.789 23.2656C240.117 22.5885 240.578 22.0729 241.172 21.7188C241.766 21.3646 242.458 21.1875 243.25 21.1875ZM243.25 22.5703C242.672 22.5703 242.203 22.7578 241.844 23.1328C241.49 23.5078 241.281 24.0573 241.219 24.7812H245.156C245.151 24.349 245.078 23.9661 244.938 23.6328C244.802 23.2995 244.594 23.0391 244.312 22.8516C244.036 22.6641 243.682 22.5703 243.25 22.5703ZM254.836 27.5312C254.836 28.099 254.698 28.5781 254.422 28.9688C254.146 29.3594 253.742 29.6562 253.211 29.8594C252.685 30.0573 252.039 30.1562 251.273 30.1562C250.669 30.1562 250.148 30.112 249.711 30.0234C249.279 29.9401 248.87 29.8099 248.484 29.6328V28.0469C248.896 28.2396 249.357 28.4062 249.867 28.5469C250.383 28.6875 250.87 28.7578 251.328 28.7578C251.932 28.7578 252.367 28.6641 252.633 28.4766C252.898 28.2839 253.031 28.0286 253.031 27.7109C253.031 27.5234 252.977 27.3568 252.867 27.2109C252.763 27.0599 252.565 26.9062 252.273 26.75C251.987 26.5885 251.565 26.3958 251.008 26.1719C250.461 25.9531 250 25.7344 249.625 25.5156C249.25 25.2969 248.966 25.0339 248.773 24.7266C248.581 24.4141 248.484 24.0156 248.484 23.5312C248.484 22.7656 248.786 22.1849 249.391 21.7891C250 21.388 250.805 21.1875 251.805 21.1875C252.336 21.1875 252.836 21.2422 253.305 21.3516C253.779 21.4557 254.242 21.6094 254.695 21.8125L254.117 23.1953C253.727 23.0234 253.333 22.8828 252.938 22.7734C252.547 22.6589 252.148 22.6016 251.742 22.6016C251.268 22.6016 250.906 22.6745 250.656 22.8203C250.411 22.9661 250.289 23.1745 250.289 23.4453C250.289 23.6484 250.349 23.8203 250.469 23.9609C250.589 24.1016 250.794 24.2422 251.086 24.3828C251.383 24.5234 251.794 24.6979 252.32 24.9062C252.836 25.1042 253.281 25.3125 253.656 25.5312C254.036 25.7448 254.328 26.0078 254.531 26.3203C254.734 26.6328 254.836 27.0365 254.836 27.5312Z" fill="white"/>
<path d="M264.035 27.4023C264.281 27.6484 264.691 27.6484 264.938 27.4023L268.656 23.6836C268.93 23.4102 268.93 23 268.656 22.7539L268.055 22.125C267.781 21.8789 267.371 21.8789 267.125 22.125L264.473 24.7773L261.848 22.125C261.602 21.8789 261.191 21.8789 260.918 22.125L260.316 22.7539C260.043 23 260.043 23.4102 260.316 23.6836L264.035 27.4023Z" fill="white"/>
</g>
<g clip-path="url(#clip3_232_397)">
<path d="M88.7812 30V18.5781H90.6562V28.4062H95.5078V30H88.7812ZM100.688 21.1875C101.781 21.1875 102.607 21.4297 103.164 21.9141C103.727 22.3984 104.008 23.1536 104.008 24.1797V30H102.703L102.352 28.7734H102.289C102.044 29.0859 101.792 29.3438 101.531 29.5469C101.271 29.75 100.969 29.901 100.625 30C100.286 30.1042 99.8724 30.1562 99.3828 30.1562C98.8672 30.1562 98.4062 30.0625 98 29.875C97.5938 29.6823 97.2734 29.3906 97.0391 29C96.8047 28.6094 96.6875 28.1146 96.6875 27.5156C96.6875 26.625 97.0182 25.9557 97.6797 25.5078C98.3464 25.0599 99.3516 24.8125 100.695 24.7656L102.195 24.7109V24.2578C102.195 23.6589 102.055 23.2318 101.773 22.9766C101.497 22.7214 101.107 22.5938 100.602 22.5938C100.169 22.5938 99.75 22.6562 99.3438 22.7812C98.9375 22.9062 98.5417 23.0599 98.1562 23.2422L97.5625 21.9453C97.9844 21.7214 98.4635 21.5391 99 21.3984C99.5417 21.2578 100.104 21.1875 100.688 21.1875ZM102.188 25.8672L101.07 25.9062C100.154 25.9375 99.5104 26.0938 99.1406 26.375C98.7708 26.6562 98.5859 27.0417 98.5859 27.5312C98.5859 27.9583 98.7135 28.2708 98.9688 28.4688C99.224 28.6615 99.5599 28.7578 99.9766 28.7578C100.612 28.7578 101.138 28.5781 101.555 28.2188C101.977 27.8542 102.188 27.3203 102.188 26.6172V25.8672ZM111.086 21.1875C112.06 21.1875 112.818 21.4401 113.359 21.9453C113.906 22.4453 114.18 23.25 114.18 24.3594V30H112.344V24.7031C112.344 24.0312 112.206 23.5286 111.93 23.1953C111.654 22.8568 111.227 22.6875 110.648 22.6875C109.81 22.6875 109.227 22.9453 108.898 23.4609C108.576 23.9766 108.414 24.724 108.414 25.7031V30H106.578V21.3516H108.008L108.266 22.5234H108.367C108.555 22.2214 108.786 21.974 109.062 21.7812C109.344 21.5833 109.656 21.4349 110 21.3359C110.349 21.237 110.711 21.1875 111.086 21.1875ZM119.656 30.1562C118.625 30.1562 117.797 29.7812 117.172 29.0312C116.552 28.276 116.242 27.1641 116.242 25.6953C116.242 24.2109 116.557 23.0885 117.188 22.3281C117.823 21.5677 118.659 21.1875 119.695 21.1875C120.133 21.1875 120.516 21.2474 120.844 21.3672C121.172 21.4818 121.453 21.638 121.688 21.8359C121.927 22.0339 122.13 22.2552 122.297 22.5H122.383C122.357 22.3385 122.326 22.1068 122.289 21.8047C122.258 21.4974 122.242 21.2135 122.242 20.9531V17.8438H124.086V30H122.648L122.32 28.8203H122.242C122.086 29.0703 121.888 29.2969 121.648 29.5C121.414 29.6979 121.133 29.8568 120.805 29.9766C120.482 30.0964 120.099 30.1562 119.656 30.1562ZM120.172 28.6641C120.958 28.6641 121.513 28.4375 121.836 27.9844C122.159 27.5312 122.326 26.8516 122.336 25.9453V25.7031C122.336 24.7344 122.18 23.9922 121.867 23.4766C121.555 22.9557 120.984 22.6953 120.156 22.6953C119.495 22.6953 118.99 22.9635 118.641 23.5C118.297 24.0312 118.125 24.7734 118.125 25.7266C118.125 26.6797 118.297 27.4089 118.641 27.9141C118.99 28.4141 119.5 28.6641 120.172 28.6641ZM128.555 21.3516V30H126.719V21.3516H128.555ZM127.648 18.0391C127.93 18.0391 128.172 18.1146 128.375 18.2656C128.583 18.4167 128.688 18.6771 128.688 19.0469C128.688 19.4115 128.583 19.6719 128.375 19.8281C128.172 19.9792 127.93 20.0547 127.648 20.0547C127.357 20.0547 127.109 19.9792 126.906 19.8281C126.708 19.6719 126.609 19.4115 126.609 19.0469C126.609 18.6771 126.708 18.4167 126.906 18.2656C127.109 18.1146 127.357 18.0391 127.648 18.0391ZM135.695 21.1875C136.669 21.1875 137.427 21.4401 137.969 21.9453C138.516 22.4453 138.789 23.25 138.789 24.3594V30H136.953V24.7031C136.953 24.0312 136.815 23.5286 136.539 23.1953C136.263 22.8568 135.836 22.6875 135.258 22.6875C134.419 22.6875 133.836 22.9453 133.508 23.4609C133.185 23.9766 133.023 24.724 133.023 25.7031V30H131.188V21.3516H132.617L132.875 22.5234H132.977C133.164 22.2214 133.396 21.974 133.672 21.7812C133.953 21.5833 134.266 21.4349 134.609 21.3359C134.958 21.237 135.32 21.1875 135.695 21.1875ZM143.828 33.8438C142.656 33.8438 141.758 33.6328 141.133 33.2109C140.508 32.7891 140.195 32.1979 140.195 31.4375C140.195 30.9062 140.362 30.4557 140.695 30.0859C141.029 29.7214 141.505 29.4688 142.125 29.3281C141.891 29.224 141.688 29.0625 141.516 28.8438C141.349 28.6198 141.266 28.3724 141.266 28.1016C141.266 27.7786 141.357 27.5026 141.539 27.2734C141.721 27.0443 141.995 26.8229 142.359 26.6094C141.906 26.4167 141.542 26.1042 141.266 25.6719C140.995 25.2344 140.859 24.7214 140.859 24.1328C140.859 23.5078 140.992 22.9766 141.258 22.5391C141.523 22.0964 141.911 21.7604 142.422 21.5312C142.932 21.2969 143.549 21.1797 144.273 21.1797C144.43 21.1797 144.599 21.1901 144.781 21.2109C144.969 21.2266 145.141 21.2474 145.297 21.2734C145.458 21.2943 145.581 21.3177 145.664 21.3438H148.656V22.3672L147.188 22.6406C147.328 22.8385 147.44 23.0651 147.523 23.3203C147.607 23.5703 147.648 23.8438 147.648 24.1406C147.648 25.0365 147.339 25.7422 146.719 26.2578C146.104 26.7682 145.255 27.0234 144.172 27.0234C143.911 27.013 143.659 26.9922 143.414 26.9609C143.227 27.0755 143.083 27.2031 142.984 27.3438C142.885 27.4792 142.836 27.6328 142.836 27.8047C142.836 27.9453 142.885 28.0599 142.984 28.1484C143.083 28.2318 143.229 28.2943 143.422 28.3359C143.62 28.3776 143.859 28.3984 144.141 28.3984H145.633C146.581 28.3984 147.305 28.599 147.805 29C148.305 29.401 148.555 29.9896 148.555 30.7656C148.555 31.75 148.148 32.5078 147.336 33.0391C146.523 33.5755 145.354 33.8438 143.828 33.8438ZM143.898 32.5547C144.539 32.5547 145.078 32.4922 145.516 32.3672C145.953 32.2422 146.284 32.0625 146.508 31.8281C146.732 31.599 146.844 31.3255 146.844 31.0078C146.844 30.7266 146.773 30.5104 146.633 30.3594C146.492 30.2083 146.281 30.1042 146 30.0469C145.719 29.9896 145.37 29.9609 144.953 29.9609H143.594C143.255 29.9609 142.956 30.013 142.695 30.1172C142.435 30.2266 142.232 30.3828 142.086 30.5859C141.945 30.7891 141.875 31.0339 141.875 31.3203C141.875 31.7161 142.049 32.0208 142.398 32.2344C142.753 32.4479 143.253 32.5547 143.898 32.5547ZM144.258 25.8203C144.794 25.8203 145.193 25.6745 145.453 25.3828C145.714 25.0859 145.844 24.6693 145.844 24.1328C145.844 23.5495 145.708 23.112 145.438 22.8203C145.172 22.5286 144.776 22.3828 144.25 22.3828C143.734 22.3828 143.341 22.5312 143.07 22.8281C142.805 23.125 142.672 23.5651 142.672 24.1484C142.672 24.6745 142.805 25.0859 143.07 25.3828C143.341 25.6745 143.737 25.8203 144.258 25.8203ZM156.047 27.5312C156.047 28.099 155.909 28.5781 155.633 28.9688C155.357 29.3594 154.953 29.6562 154.422 29.8594C153.896 30.0573 153.25 30.1562 152.484 30.1562C151.88 30.1562 151.359 30.112 150.922 30.0234C150.49 29.9401 150.081 29.8099 149.695 29.6328V28.0469C150.107 28.2396 150.568 28.4062 151.078 28.5469C151.594 28.6875 152.081 28.7578 152.539 28.7578C153.143 28.7578 153.578 28.6641 153.844 28.4766C154.109 28.2839 154.242 28.0286 154.242 27.7109C154.242 27.5234 154.188 27.3568 154.078 27.2109C153.974 27.0599 153.776 26.9062 153.484 26.75C153.198 26.5885 152.776 26.3958 152.219 26.1719C151.672 25.9531 151.211 25.7344 150.836 25.5156C150.461 25.2969 150.177 25.0339 149.984 24.7266C149.792 24.4141 149.695 24.0156 149.695 23.5312C149.695 22.7656 149.997 22.1849 150.602 21.7891C151.211 21.388 152.016 21.1875 153.016 21.1875C153.547 21.1875 154.047 21.2422 154.516 21.3516C154.99 21.4557 155.453 21.6094 155.906 21.8125L155.328 23.1953C154.938 23.0234 154.544 22.8828 154.148 22.7734C153.758 22.6589 153.359 22.6016 152.953 22.6016C152.479 22.6016 152.117 22.6745 151.867 22.8203C151.622 22.9661 151.5 23.1745 151.5 23.4453C151.5 23.6484 151.56 23.8203 151.68 23.9609C151.799 24.1016 152.005 24.2422 152.297 24.3828C152.594 24.5234 153.005 24.6979 153.531 24.9062C154.047 25.1042 154.492 25.3125 154.867 25.5312C155.247 25.7448 155.539 26.0078 155.742 26.3203C155.945 26.6328 156.047 27.0365 156.047 27.5312Z" fill="white"/>
<path d="M165.035 27.4023C165.281 27.6484 165.691 27.6484 165.938 27.4023L169.656 23.6836C169.93 23.4102 169.93 23 169.656 22.7539L169.055 22.125C168.781 21.8789 168.371 21.8789 168.125 22.125L165.473 24.7773L162.848 22.125C162.602 21.8789 162.191 21.8789 161.918 22.125L161.316 22.7539C161.043 23 161.043 23.4102 161.316 23.6836L165.035 27.4023Z" fill="white"/>
</g>
<path d="M320.148 24.1797C320.148 25.4661 319.909 26.5417 319.43 27.4062C318.951 28.2656 318.255 28.9141 317.344 29.3516C316.432 29.7839 315.333 30 314.047 30H310.875V18.5781H314.391C315.573 18.5781 316.594 18.7917 317.453 19.2188C318.312 19.6406 318.977 20.2682 319.445 21.1016C319.914 21.9297 320.148 22.9557 320.148 24.1797ZM318.195 24.2344C318.195 23.2969 318.047 22.526 317.75 21.9219C317.458 21.3177 317.026 20.8698 316.453 20.5781C315.885 20.2812 315.185 20.1328 314.352 20.1328H312.75V28.4297H314.078C315.458 28.4297 316.49 28.0781 317.172 27.375C317.854 26.6719 318.195 25.625 318.195 24.2344ZM330.078 25.6562C330.078 26.375 329.984 27.013 329.797 27.5703C329.609 28.1276 329.336 28.599 328.977 28.9844C328.617 29.3646 328.185 29.6562 327.68 29.8594C327.174 30.0573 326.604 30.1562 325.969 30.1562C325.375 30.1562 324.831 30.0573 324.336 29.8594C323.841 29.6562 323.411 29.3646 323.047 28.9844C322.688 28.599 322.409 28.1276 322.211 27.5703C322.013 27.013 321.914 26.375 321.914 25.6562C321.914 24.7031 322.078 23.8958 322.406 23.2344C322.74 22.5677 323.214 22.0599 323.828 21.7109C324.443 21.362 325.174 21.1875 326.023 21.1875C326.82 21.1875 327.523 21.362 328.133 21.7109C328.742 22.0599 329.219 22.5677 329.562 23.2344C329.906 23.901 330.078 24.7083 330.078 25.6562ZM323.805 25.6562C323.805 26.2865 323.88 26.8255 324.031 27.2734C324.188 27.7214 324.427 28.0651 324.75 28.3047C325.073 28.5391 325.49 28.6562 326 28.6562C326.51 28.6562 326.927 28.5391 327.25 28.3047C327.573 28.0651 327.81 27.7214 327.961 27.2734C328.112 26.8255 328.188 26.2865 328.188 25.6562C328.188 25.026 328.112 24.4922 327.961 24.0547C327.81 23.612 327.573 23.276 327.25 23.0469C326.927 22.8125 326.508 22.6953 325.992 22.6953C325.232 22.6953 324.677 22.9505 324.328 23.4609C323.979 23.9714 323.805 24.7031 323.805 25.6562ZM335.672 30.1562C334.854 30.1562 334.146 29.9974 333.547 29.6797C332.948 29.362 332.487 28.875 332.164 28.2188C331.841 27.5625 331.68 26.7292 331.68 25.7188C331.68 24.6667 331.857 23.8073 332.211 23.1406C332.565 22.474 333.055 21.9818 333.68 21.6641C334.31 21.3464 335.031 21.1875 335.844 21.1875C336.359 21.1875 336.826 21.2396 337.242 21.3438C337.664 21.4427 338.021 21.5651 338.312 21.7109L337.766 23.1797C337.448 23.0495 337.122 22.9401 336.789 22.8516C336.456 22.763 336.135 22.7188 335.828 22.7188C335.323 22.7188 334.901 22.8307 334.562 23.0547C334.229 23.2786 333.979 23.612 333.812 24.0547C333.651 24.4974 333.57 25.0469 333.57 25.7031C333.57 26.3385 333.654 26.875 333.82 27.3125C333.987 27.7448 334.234 28.0729 334.562 28.2969C334.891 28.5156 335.294 28.625 335.773 28.625C336.247 28.625 336.672 28.5677 337.047 28.4531C337.422 28.3385 337.776 28.1901 338.109 28.0078V29.6016C337.781 29.7891 337.43 29.9271 337.055 30.0156C336.68 30.1094 336.219 30.1562 335.672 30.1562ZM345.953 27.5312C345.953 28.099 345.815 28.5781 345.539 28.9688C345.263 29.3594 344.859 29.6562 344.328 29.8594C343.802 30.0573 343.156 30.1562 342.391 30.1562C341.786 30.1562 341.266 30.112 340.828 30.0234C340.396 29.9401 339.987 29.8099 339.602 29.6328V28.0469C340.013 28.2396 340.474 28.4062 340.984 28.5469C341.5 28.6875 341.987 28.7578 342.445 28.7578C343.049 28.7578 343.484 28.6641 343.75 28.4766C344.016 28.2839 344.148 28.0286 344.148 27.7109C344.148 27.5234 344.094 27.3568 343.984 27.2109C343.88 27.0599 343.682 26.9062 343.391 26.75C343.104 26.5885 342.682 26.3958 342.125 26.1719C341.578 25.9531 341.117 25.7344 340.742 25.5156C340.367 25.2969 340.083 25.0339 339.891 24.7266C339.698 24.4141 339.602 24.0156 339.602 23.5312C339.602 22.7656 339.904 22.1849 340.508 21.7891C341.117 21.388 341.922 21.1875 342.922 21.1875C343.453 21.1875 343.953 21.2422 344.422 21.3516C344.896 21.4557 345.359 21.6094 345.812 21.8125L345.234 23.1953C344.844 23.0234 344.451 22.8828 344.055 22.7734C343.664 22.6589 343.266 22.6016 342.859 22.6016C342.385 22.6016 342.023 22.6745 341.773 22.8203C341.529 22.9661 341.406 23.1745 341.406 23.4453C341.406 23.6484 341.466 23.8203 341.586 23.9609C341.706 24.1016 341.911 24.2422 342.203 24.3828C342.5 24.5234 342.911 24.6979 343.438 24.9062C343.953 25.1042 344.398 25.3125 344.773 25.5312C345.154 25.7448 345.445 26.0078 345.648 26.3203C345.852 26.6328 345.953 27.0365 345.953 27.5312Z" fill="white"/>
<path d="M397.664 30H395.797V24.8438H390.531V30H388.656V18.5781H390.531V23.25H395.797V18.5781H397.664V30ZM403.945 21.1875C404.716 21.1875 405.378 21.3464 405.93 21.6641C406.482 21.9818 406.906 22.4323 407.203 23.0156C407.5 23.599 407.648 24.2969 407.648 25.1094V26.0938H401.875C401.896 26.9323 402.12 27.5781 402.547 28.0312C402.979 28.4844 403.583 28.7109 404.359 28.7109C404.911 28.7109 405.406 28.6589 405.844 28.5547C406.286 28.4453 406.742 28.2865 407.211 28.0781V29.5703C406.779 29.7734 406.339 29.9219 405.891 30.0156C405.443 30.1094 404.906 30.1562 404.281 30.1562C403.432 30.1562 402.685 29.9922 402.039 29.6641C401.398 29.3307 400.896 28.8359 400.531 28.1797C400.172 27.5234 399.992 26.7083 399.992 25.7344C399.992 24.7656 400.156 23.9427 400.484 23.2656C400.812 22.5885 401.273 22.0729 401.867 21.7188C402.461 21.3646 403.154 21.1875 403.945 21.1875ZM403.945 22.5703C403.367 22.5703 402.898 22.7578 402.539 23.1328C402.185 23.5078 401.977 24.0573 401.914 24.7812H405.852C405.846 24.349 405.773 23.9661 405.633 23.6328C405.497 23.2995 405.289 23.0391 405.008 22.8516C404.732 22.6641 404.378 22.5703 403.945 22.5703ZM411.562 30H409.719V17.8438H411.562V30ZM418.625 21.1875C419.651 21.1875 420.474 21.5625 421.094 22.3125C421.719 23.0625 422.031 24.1771 422.031 25.6562C422.031 26.6354 421.885 27.4609 421.594 28.1328C421.307 28.7995 420.904 29.3047 420.383 29.6484C419.867 29.987 419.266 30.1562 418.578 30.1562C418.141 30.1562 417.76 30.099 417.438 29.9844C417.115 29.8698 416.839 29.7214 416.609 29.5391C416.38 29.3516 416.188 29.1484 416.031 28.9297H415.922C415.948 29.138 415.971 29.3698 415.992 29.625C416.018 29.875 416.031 30.1042 416.031 30.3125V33.8359H414.188V21.3516H415.688L415.945 22.5469H416.031C416.193 22.3021 416.388 22.0755 416.617 21.8672C416.852 21.6589 417.133 21.4948 417.461 21.375C417.794 21.25 418.182 21.1875 418.625 21.1875ZM418.133 22.6875C417.628 22.6875 417.221 22.7891 416.914 22.9922C416.612 23.1901 416.391 23.4896 416.25 23.8906C416.115 24.2917 416.042 24.7943 416.031 25.3984V25.6562C416.031 26.2969 416.096 26.8411 416.227 27.2891C416.362 27.7318 416.583 28.0703 416.891 28.3047C417.203 28.5339 417.625 28.6484 418.156 28.6484C418.604 28.6484 418.974 28.526 419.266 28.2812C419.562 28.0365 419.784 27.6875 419.93 27.2344C420.076 26.7812 420.148 26.2474 420.148 25.6328C420.148 24.7005 419.982 23.9766 419.648 23.4609C419.32 22.9453 418.815 22.6875 418.133 22.6875Z" fill="white"/>
</g>
<rect x="464" y="1" width="129" height="46" rx="7" stroke="white" stroke-width="2"/>
<path d="M493.364 23.5859H497.895V29.5078C497.296 29.7057 496.673 29.8646 496.028 29.9844C495.382 30.099 494.65 30.1562 493.832 30.1562C492.697 30.1562 491.733 29.9323 490.942 29.4844C490.15 29.0365 489.548 28.375 489.137 27.5C488.726 26.625 488.52 25.5495 488.52 24.2734C488.52 23.0755 488.749 22.0391 489.207 21.1641C489.671 20.2891 490.345 19.612 491.231 19.1328C492.121 18.6536 493.207 18.4141 494.489 18.4141C495.093 18.4141 495.689 18.4792 496.278 18.6094C496.866 18.7396 497.4 18.9089 497.879 19.1172L497.075 21.0547C496.726 20.8776 496.327 20.7292 495.879 20.6094C495.431 20.4896 494.963 20.4297 494.473 20.4297C493.77 20.4297 493.158 20.5911 492.637 20.9141C492.121 21.237 491.72 21.6901 491.434 22.2734C491.153 22.8516 491.012 23.5339 491.012 24.3203C491.012 25.0651 491.114 25.7266 491.317 26.3047C491.52 26.8776 491.84 27.3281 492.278 27.6562C492.715 27.9792 493.285 28.1406 493.989 28.1406C494.332 28.1406 494.621 28.125 494.856 28.0938C495.095 28.0573 495.319 28.0208 495.528 27.9844V25.6016H493.364V23.5859ZM504.035 21.1016C504.843 21.1016 505.538 21.2578 506.121 21.5703C506.705 21.8776 507.155 22.3255 507.473 22.9141C507.791 23.5026 507.95 24.2214 507.95 25.0703V26.2266H502.317C502.343 26.8984 502.543 27.4271 502.918 27.8125C503.298 28.1927 503.825 28.3828 504.496 28.3828C505.054 28.3828 505.564 28.3255 506.028 28.2109C506.491 28.0964 506.968 27.9245 507.457 27.6953V29.5391C507.025 29.7526 506.572 29.9089 506.098 30.0078C505.629 30.1068 505.059 30.1562 504.387 30.1562C503.512 30.1562 502.736 29.9948 502.059 29.6719C501.387 29.349 500.858 28.8568 500.473 28.1953C500.093 27.5339 499.903 26.7005 499.903 25.6953C499.903 24.6745 500.075 23.8255 500.418 23.1484C500.767 22.4661 501.252 21.9557 501.871 21.6172C502.491 21.2734 503.213 21.1016 504.035 21.1016ZM504.051 22.7969C503.588 22.7969 503.202 22.9453 502.895 23.2422C502.593 23.5391 502.418 24.0052 502.371 24.6406H505.715C505.71 24.2865 505.645 23.9714 505.52 23.6953C505.4 23.4193 505.218 23.2005 504.973 23.0391C504.733 22.8776 504.426 22.7969 504.051 22.7969ZM513.567 28.2578C513.827 28.2578 514.08 28.2318 514.325 28.1797C514.575 28.1276 514.822 28.0625 515.067 27.9844V29.7578C514.812 29.8724 514.494 29.9661 514.114 30.0391C513.739 30.1172 513.327 30.1562 512.879 30.1562C512.358 30.1562 511.89 30.0729 511.473 29.9062C511.062 29.7344 510.736 29.4401 510.496 29.0234C510.262 28.6016 510.145 28.0156 510.145 27.2656V23.0547H509.004V22.0469L510.317 21.25L511.004 19.4062H512.528V21.2656H514.973V23.0547H512.528V27.2656C512.528 27.599 512.621 27.849 512.809 28.0156C513.002 28.1771 513.254 28.2578 513.567 28.2578ZM523.379 21.2656V30H520.996V21.2656H523.379ZM522.192 17.8438C522.546 17.8438 522.851 17.9271 523.106 18.0938C523.361 18.2552 523.489 18.5599 523.489 19.0078C523.489 19.4505 523.361 19.7578 523.106 19.9297C522.851 20.0964 522.546 20.1797 522.192 20.1797C521.832 20.1797 521.525 20.0964 521.27 19.9297C521.02 19.7578 520.895 19.4505 520.895 19.0078C520.895 18.5599 521.02 18.2552 521.27 18.0938C521.525 17.9271 521.832 17.8438 522.192 17.8438ZM529.567 28.2578C529.827 28.2578 530.08 28.2318 530.325 28.1797C530.575 28.1276 530.822 28.0625 531.067 27.9844V29.7578C530.812 29.8724 530.494 29.9661 530.114 30.0391C529.739 30.1172 529.327 30.1562 528.879 30.1562C528.358 30.1562 527.89 30.0729 527.473 29.9062C527.062 29.7344 526.736 29.4401 526.496 29.0234C526.262 28.6016 526.145 28.0156 526.145 27.2656V23.0547H525.004V22.0469L526.317 21.25L527.004 19.4062H528.528V21.2656H530.973V23.0547H528.528V27.2656C528.528 27.599 528.621 27.849 528.809 28.0156C529.002 28.1771 529.254 28.2578 529.567 28.2578ZM541.957 21.1016C542.89 21.1016 543.64 21.3568 544.207 21.8672C544.775 22.3724 545.059 23.1849 545.059 24.3047V30H542.676V24.8984C542.676 24.2734 542.562 23.8021 542.332 23.4844C542.108 23.1667 541.754 23.0078 541.27 23.0078C540.541 23.0078 540.043 23.2552 539.778 23.75C539.512 24.2448 539.379 24.9583 539.379 25.8906V30H536.996V21.2656H538.817L539.137 22.3828H539.27C539.457 22.0807 539.689 21.8359 539.965 21.6484C540.246 21.4609 540.556 21.3229 540.895 21.2344C541.239 21.1458 541.593 21.1016 541.957 21.1016ZM555.45 25.6172C555.45 26.3464 555.351 26.9922 555.153 27.5547C554.96 28.1172 554.676 28.5938 554.301 28.9844C553.931 29.3698 553.483 29.6615 552.957 29.8594C552.437 30.0573 551.848 30.1562 551.192 30.1562C550.577 30.1562 550.012 30.0573 549.496 29.8594C548.986 29.6615 548.541 29.3698 548.16 28.9844C547.785 28.5938 547.494 28.1172 547.285 27.5547C547.082 26.9922 546.981 26.3464 546.981 25.6172C546.981 24.6484 547.153 23.8281 547.496 23.1562C547.84 22.4844 548.33 21.974 548.965 21.625C549.601 21.276 550.358 21.1016 551.239 21.1016C552.056 21.1016 552.78 21.276 553.41 21.625C554.046 21.974 554.543 22.4844 554.903 23.1562C555.267 23.8281 555.45 24.6484 555.45 25.6172ZM549.41 25.6172C549.41 26.1901 549.473 26.6719 549.598 27.0625C549.723 27.4531 549.918 27.7474 550.184 27.9453C550.45 28.1432 550.796 28.2422 551.223 28.2422C551.645 28.2422 551.986 28.1432 552.246 27.9453C552.512 27.7474 552.705 27.4531 552.825 27.0625C552.95 26.6719 553.012 26.1901 553.012 25.6172C553.012 25.0391 552.95 24.5599 552.825 24.1797C552.705 23.7943 552.512 23.5052 552.246 23.3125C551.981 23.1198 551.634 23.0234 551.207 23.0234C550.577 23.0234 550.119 23.2396 549.832 23.6719C549.551 24.1042 549.41 24.7526 549.41 25.6172ZM564.598 30L563.926 26.9453C563.89 26.763 563.83 26.4948 563.746 26.1406C563.663 25.7812 563.572 25.3984 563.473 24.9922C563.379 24.5807 563.291 24.2005 563.207 23.8516C563.129 23.5026 563.072 23.2474 563.035 23.0859H562.965C562.929 23.2474 562.871 23.5026 562.793 23.8516C562.715 24.2005 562.627 24.5807 562.528 24.9922C562.434 25.4036 562.345 25.7917 562.262 26.1562C562.179 26.5156 562.116 26.7891 562.075 26.9766L561.371 30H558.809L556.325 21.2656H558.7L559.707 25.1328C559.775 25.4036 559.84 25.7266 559.903 26.1016C559.965 26.4714 560.02 26.8307 560.067 27.1797C560.119 27.5234 560.158 27.7969 560.184 28H560.246C560.257 27.849 560.278 27.6484 560.309 27.3984C560.345 27.1484 560.384 26.8906 560.426 26.625C560.473 26.3542 560.515 26.112 560.551 25.8984C560.593 25.6797 560.624 25.5312 560.645 25.4531L561.723 21.2656H564.348L565.371 25.4531C565.408 25.6042 565.455 25.8438 565.512 26.1719C565.575 26.5 565.629 26.8385 565.676 27.1875C565.723 27.5312 565.749 27.8021 565.754 28H565.817C565.838 27.8229 565.874 27.5599 565.926 27.2109C565.978 26.862 566.038 26.4974 566.106 26.1172C566.179 25.7318 566.252 25.4036 566.325 25.1328L567.371 21.2656H569.707L567.192 30H564.598Z" fill="white"/>
</g>
<defs>
<clipPath id="clip0_232_397">
<rect width="594" height="48" fill="white"/>
</clipPath>
<clipPath id="clip1_232_397">
<rect width="423" height="22" fill="white" transform="translate(0 13)"/>
</clipPath>
<clipPath id="clip2_232_397">
<rect width="59" height="22" fill="white" transform="translate(210 13)"/>
</clipPath>
<clipPath id="clip3_232_397">
<rect width="83" height="22" fill="white" transform="translate(87 13)"/>
</clipPath>
</defs>
</svg>
