<svg width="484" height="27" viewBox="0 0 484 27" fill="none" xmlns="http://www.w3.org/2000/svg">
<path fill-rule="evenodd" clip-rule="evenodd" d="M44.8243 23.2244L44.8243 23.2244C44.3691 23.271 43.9071 23.3184 43.434 23.3766L39.6385 12.3962V23.8438C38.4524 23.9607 37.3849 24.1164 36.2383 24.3111V3.32373H39.4013L43.7108 15.2386V3.32373H47.0714V22.9483C46.3289 23.0702 45.5864 23.1463 44.8244 23.2243L44.8244 23.2243L44.8243 23.2243L44.8243 23.2244ZM53.6345 11.0334C54.3024 11.0334 55.1464 11.013 55.9703 10.993C56.7559 10.9741 57.5232 10.9555 58.1021 10.9555V14.2263C56.6392 14.2263 54.8996 14.2263 53.6345 14.3041V19.1713C54.2506 19.1342 54.8707 19.0931 55.4936 19.0518C56.8292 18.9633 58.1773 18.874 59.5254 18.8209V21.9748L50.3134 22.6757V3.32373H59.5254V6.59449H53.6345V11.0334ZM68.4212 6.63343H71.8609C71.8609 6.63343 71.8609 3.32373 71.9004 3.32373H61.6604V6.63343H65.1001V21.7412C66.1675 21.7023 67.314 21.7023 68.421 21.7023H68.4212V6.63343ZM77.2774 10.7998H81.8241V14.0705H77.2774V21.5076H73.9958V3.32373H83.2869V6.59449H77.2774V10.7998ZM92.1512 18.7827C91.0079 18.7165 89.8557 18.6498 88.7035 18.6262V3.32373H85.3824V21.7023C88.4267 21.7802 91.392 21.9359 94.3572 22.1306V18.8988C93.6272 18.8682 92.8911 18.8256 92.1512 18.7827ZM97.1643 22.3642C97.5342 22.3912 97.9088 22.4135 98.2866 22.436L98.2867 22.436C98.9991 22.4784 99.7225 22.5215 100.446 22.5978V3.32373H97.1643V22.3642ZM110.765 13.2918L114.995 3.32373H111.318L108.986 8.81393L106.811 3.32373H103.253L107.128 13.1749L102.858 22.7536C103.332 22.8159 103.806 22.8657 104.281 22.9156C104.993 22.9903 105.704 23.0651 106.416 23.1819L108.867 17.6138L111.239 23.6881C111.682 23.7563 112.121 23.8292 112.557 23.902C113.368 24.0369 114.173 24.171 114.995 24.2722L110.765 13.2918Z" fill="#5A7184"/>
<path fill-rule="evenodd" clip-rule="evenodd" d="M158.386 5.31677C158.386 6.13268 157.675 6.83203 156.844 6.83203C156.014 6.83203 155.302 6.13268 155.302 5.31677C155.302 4.50086 156.014 3.80151 156.844 3.80151C157.675 3.80151 158.386 4.50086 158.386 5.31677ZM156.844 8.07533C155.935 8.07533 155.223 8.77468 155.223 9.66829C155.223 10.5619 155.935 11.2613 156.844 11.2613C157.754 11.2613 158.465 10.5619 158.465 9.66829C158.465 8.73582 157.754 8.07533 156.844 8.07533ZM155.184 13.9421C155.184 13.0485 155.935 12.3103 156.844 12.3103C157.754 12.3103 158.544 13.0485 158.505 13.9421C158.505 14.8357 157.754 15.5739 156.844 15.5739C155.935 15.5739 155.184 14.8357 155.184 13.9421ZM156.844 16.6229C155.935 16.6229 155.223 17.3223 155.223 18.2159C155.223 19.1095 155.935 19.8089 156.844 19.8089C157.754 19.8089 158.465 19.1095 158.465 18.2159C158.465 17.3612 157.754 16.6229 156.844 16.6229ZM155.302 22.5286C155.302 21.7127 156.014 21.0133 156.844 21.0133C157.714 21.0133 158.386 21.7127 158.386 22.5286C158.386 23.3445 157.675 24.0438 156.844 24.0438C156.014 24.0438 155.302 23.3445 155.302 22.5286ZM161.114 7.88106C160.126 7.88106 159.296 8.69697 159.296 9.66829C159.296 10.6396 160.126 11.4555 161.114 11.4555C162.103 11.4555 162.933 10.6396 162.933 9.66829C162.933 8.69697 162.103 7.88106 161.114 7.88106ZM159.217 13.981C159.217 12.9319 160.086 12.116 161.114 12.116C162.142 12.116 163.012 12.9319 163.012 13.981C163.012 15.03 162.142 15.8459 161.114 15.8459C160.047 15.8459 159.217 14.9911 159.217 13.981ZM161.114 16.4287C160.126 16.4287 159.296 17.2446 159.296 18.2159C159.296 19.1872 160.126 20.0031 161.114 20.0031C162.103 20.0031 162.933 19.1872 162.933 18.2159C162.933 17.2446 162.103 16.4287 161.114 16.4287ZM163.407 13.9421C163.407 12.7765 164.396 11.8829 165.503 11.8829C166.61 11.8829 167.519 12.7765 167.598 13.9421C167.598 15.1077 166.689 16.0013 165.503 16.0013C164.317 16.0013 163.407 15.03 163.407 13.9421ZM152.535 8.26959C151.784 8.26959 151.151 8.89123 151.151 9.62944C151.151 10.3676 151.784 10.9893 152.535 10.9893C153.286 10.9893 153.919 10.3676 153.919 9.62944C153.919 8.89123 153.326 8.26959 152.535 8.26959ZM151.072 13.9421C151.072 13.1262 151.705 12.5045 152.535 12.5045C153.365 12.5045 153.998 13.1262 153.998 13.9421C153.998 14.758 153.365 15.3797 152.535 15.3797C151.705 15.3797 151.072 14.758 151.072 13.9421ZM152.535 16.8172C151.784 16.8172 151.151 17.4389 151.151 18.1771C151.151 18.9153 151.784 19.5369 152.535 19.5369C153.286 19.5369 153.919 18.9153 153.919 18.1771C153.919 17.4389 153.326 16.8172 152.535 16.8172ZM146.96 13.981C146.96 13.2816 147.514 12.7377 148.225 12.7377C148.937 12.7377 149.491 13.2816 149.491 13.981C149.491 14.6803 148.937 15.2242 148.225 15.2242C147.514 15.2242 146.96 14.6803 146.96 13.981Z" fill="#5A7184"/>
<path d="M183.334 11.3C183.176 11.3 183.057 11.4555 183.057 11.572V22.3343C183.057 22.4897 183.215 22.6062 183.334 22.6062H184.639C184.797 22.6062 184.915 22.4508 184.915 22.3343V11.572C184.915 11.4166 184.757 11.3 184.639 11.3H183.334Z" fill="#5A7184"/>
<path d="M184.046 6.75415C183.334 6.75415 182.78 7.29809 182.78 7.99744C182.78 8.69679 183.334 9.24073 184.046 9.24073C184.757 9.24073 185.311 8.69679 185.311 7.99744C185.311 7.29809 184.718 6.75415 184.046 6.75415Z" fill="#5A7184"/>
<path d="M211.405 11.3C211.247 11.3 211.128 11.4555 211.128 11.572V22.3343C211.128 22.4897 211.286 22.6062 211.405 22.6062H212.71C212.868 22.6062 212.986 22.4508 212.986 22.3343V11.572C212.986 11.4166 212.828 11.3 212.71 11.3H211.405Z" fill="#5A7184"/>
<path d="M212.038 6.75415C211.326 6.75415 210.772 7.29809 210.772 7.99744C210.772 8.69679 211.326 9.24073 212.038 9.24073C212.749 9.24073 213.303 8.69679 213.303 7.99744C213.303 7.29809 212.749 6.75415 212.038 6.75415Z" fill="#5A7184"/>
<path fill-rule="evenodd" clip-rule="evenodd" d="M225.387 21.4277C225.379 21.4655 225.359 21.5113 225.31 21.557C225.31 21.6347 225.228 21.7124 225.063 21.6736L225.126 21.7463C225.118 21.7494 225.111 21.7513 225.104 21.7513H224.981L225.269 22.101H225.434L225.126 21.7463C225.14 21.741 225.156 21.7321 225.174 21.7223C225.214 21.7002 225.262 21.6736 225.31 21.6736C225.393 21.6736 225.393 21.5959 225.393 21.5182C225.393 21.4862 225.393 21.4543 225.387 21.4277ZM224.816 21.7513V21.6347V21.2851H225.104C225.187 21.2851 225.269 21.2851 225.31 21.3628C225.359 21.3628 225.379 21.3897 225.387 21.4277C225.393 21.4013 225.393 21.3787 225.393 21.3628V21.2851C225.393 21.2851 225.393 21.2073 225.31 21.2073C225.31 21.2073 225.228 21.1296 225.146 21.1296H224.981H224.61V22.101H224.775V21.7513H224.816Z" fill="#5A7184"/>
<path fill-rule="evenodd" clip-rule="evenodd" d="M224.096 21.6348C224.096 21.1686 224.531 20.7412 225.006 20.7412C225.52 20.7412 225.915 21.1297 225.915 21.6348C225.915 22.1011 225.48 22.5284 225.006 22.5284C224.531 22.5284 224.096 22.1011 224.096 21.6348ZM224.175 21.6348C224.175 22.1011 224.531 22.4507 225.006 22.4507C225.44 22.4507 225.836 22.1011 225.836 21.6348C225.836 21.1686 225.48 20.8189 225.006 20.8189C224.531 20.8189 224.175 21.1686 224.175 21.6348Z" fill="#8C98A4"/>
<path d="M194.207 13.0482C194.365 13.0482 194.483 12.8928 194.483 12.7763V11.4941C194.483 11.3387 194.325 11.2222 194.207 11.2222H191.399V7.10376C191.399 6.94835 191.241 6.83179 191.123 6.83179H189.818C189.66 6.83179 189.541 6.9872 189.541 7.10376V11.2222H188.157C187.999 11.2222 187.881 11.3776 187.881 11.4941V12.7763C187.881 12.9317 188.039 13.0482 188.157 13.0482H189.541V19.2647C189.541 21.1685 190.846 22.4118 192.744 22.4118H194.127C194.286 22.4118 194.404 22.2564 194.404 22.1398V20.8577C194.404 20.7022 194.246 20.5857 194.127 20.5857H192.941C192.032 20.5857 191.399 19.964 191.399 18.9927V13.0094H194.207V13.0482Z" fill="#5A7184"/>
<path d="M221.961 13.0482C222.119 13.0482 222.238 12.8928 222.238 12.7763V11.4941C222.238 11.3387 222.08 11.2222 221.961 11.2222H219.154V7.10376C219.154 6.94835 218.996 6.83179 218.877 6.83179H217.573C217.415 6.83179 217.296 6.9872 217.296 7.10376V11.2222H215.912C215.754 11.2222 215.635 11.3776 215.635 11.4941V12.7763C215.635 12.9317 215.794 13.0482 215.912 13.0482H217.296V19.2647C217.296 21.1685 218.601 22.4118 220.498 22.4118H221.882C222.04 22.4118 222.159 22.2564 222.159 22.1398V20.8577C222.159 20.7022 222.001 20.5857 221.882 20.5857H220.617C219.708 20.5857 219.075 19.964 219.075 18.9927V13.0094H221.922L221.961 13.0482Z" fill="#5A7184"/>
<path d="M175.031 13.0483V22.2176C175.031 22.373 175.189 22.4896 175.308 22.4896H176.613C176.771 22.4896 176.889 22.3342 176.889 22.2176V13.0483H179.973C180.131 13.0483 180.25 12.8929 180.25 12.7764V11.4942C180.25 11.3388 180.092 11.2222 179.973 11.2222H176.889V8.81337C176.889 7.84205 177.601 7.18155 178.431 7.18155H179.973C180.131 7.18155 180.25 7.02614 180.25 6.90958V5.62744C180.25 5.47203 180.092 5.35547 179.973 5.35547H178.51C176.573 5.35547 175.031 6.94843 175.031 8.77452V11.2222H173.647C173.489 11.2222 173.371 11.3777 173.371 11.4942V12.7764C173.371 12.9318 173.529 13.0483 173.647 13.0483H175.031Z" fill="#5A7184"/>
<path fill-rule="evenodd" clip-rule="evenodd" d="M202.944 10.8726C204.486 10.8726 205.949 11.4943 206.977 12.5822C208.005 13.67 208.558 15.1853 208.558 16.856C208.558 21.0132 205.672 22.8782 202.905 22.8782C200.097 22.8782 197.251 21.0521 197.251 16.856V5.5498C197.251 5.43324 197.369 5.27783 197.528 5.27783H198.832C198.951 5.27783 199.109 5.39439 199.109 5.5498V12.3879C200.018 11.4943 201.481 10.8726 202.944 10.8726ZM199.07 16.8948C199.07 18.954 200.097 21.1298 202.905 21.1298C205.712 21.1298 206.7 18.954 206.74 16.8948C206.74 14.4082 205.198 12.6987 202.905 12.6987C200.611 12.6987 199.07 14.3694 199.07 16.8948Z" fill="#5A7184"/>
<path d="M277.183 9.22514H267.964V11.9433H274.52C274.192 15.7734 270.996 17.4619 268.005 17.4619C264.154 17.4619 260.794 14.4143 260.794 10.1724C260.794 6.01279 263.99 2.80044 268.005 2.80044C271.119 2.80044 272.922 4.77727 272.922 4.77727L274.806 2.80044C274.806 2.80044 272.348 0.0822934 267.882 0.0822934C262.187 0.0411093 257.804 4.85964 257.804 10.09C257.804 15.1968 261.942 20.1801 268.046 20.1801C273.413 20.1801 277.347 16.5147 277.347 11.0372C277.347 9.88409 277.183 9.22514 277.183 9.22514Z" fill="#5A7184"/>
<path fill-rule="evenodd" clip-rule="evenodd" d="M278.207 13.6317C278.207 10.1723 280.911 7.20703 284.68 7.20703C287.794 7.20703 291.154 9.43097 291.195 13.7141C291.195 17.503 288.327 20.18 284.762 20.18C280.829 20.18 278.207 17.1736 278.207 13.6317ZM288.327 13.7141C288.327 11.3254 286.565 9.80162 284.721 9.80162C282.632 9.80162 281.034 11.449 281.075 13.6729C281.075 15.9792 282.673 17.6266 284.721 17.6266C286.606 17.6266 288.327 16.1028 288.327 13.7141Z" fill="#5A7184"/>
<path fill-rule="evenodd" clip-rule="evenodd" d="M292.301 13.6317C292.301 10.1723 295.005 7.20703 298.774 7.20703C301.888 7.20703 305.247 9.43097 305.288 13.7141C305.288 17.503 302.421 20.18 298.856 20.18C294.923 20.18 292.301 17.1736 292.301 13.6317ZM302.421 13.7141C302.421 11.3254 300.659 9.80162 298.815 9.80162C296.726 9.80162 295.128 11.449 295.169 13.6729C295.169 15.9792 296.767 17.6266 298.815 17.6266C300.7 17.6266 302.421 16.1028 302.421 13.7141Z" fill="#5A7184"/>
<path fill-rule="evenodd" clip-rule="evenodd" d="M306.395 13.7142C306.395 10.2959 309.099 7.24829 312.581 7.24829C314.097 7.24829 315.244 7.82487 315.982 8.73092V7.61895H318.686V19.274C318.686 23.8454 316.064 26.0282 312.622 26.0282C309.467 26.0282 307.706 24.0925 306.845 22.2393L309.345 21.2097C309.713 22.0333 310.697 23.516 312.663 23.516C314.712 23.516 316.064 22.1569 316.064 19.933V18.6563C315.285 19.5211 314.343 20.2213 312.499 20.2213C309.549 20.2213 306.395 17.5855 306.395 13.7142ZM316.269 13.7554C316.269 11.2843 314.507 9.8017 312.827 9.8017C311.024 9.8017 309.263 11.2431 309.222 13.7965C309.222 16.144 310.942 17.6678 312.786 17.6678C314.548 17.6678 316.269 16.3088 316.269 13.7554Z" fill="#5A7184"/>
<path fill-rule="evenodd" clip-rule="evenodd" d="M324.79 13.6729C324.79 9.80162 327.535 7.20703 330.813 7.20703C333.353 7.20703 335.279 8.93676 336.139 10.9136L336.59 11.9844L327.945 15.6086C328.478 16.597 329.297 17.5854 331.1 17.5854C332.698 17.5854 333.681 16.7205 334.255 15.8145L336.508 17.3383C335.525 18.6562 333.804 20.18 331.1 20.18C327.863 20.18 324.79 17.7501 324.79 13.6729ZM333.312 11.1195C332.903 10.337 332.083 9.71926 330.895 9.71926C329.051 9.71926 327.249 11.6549 327.576 13.5494L333.312 11.1195Z" fill="#5A7184"/>
<path d="M320.693 19.8093H323.52V0.699951H320.693V19.8093Z" fill="#5A7184"/>
<path fill-rule="evenodd" clip-rule="evenodd" d="M390.829 17.8585C390.947 18.1331 391.065 18.4469 391.183 18.7607C391.537 19.6628 391.615 20.5257 391.497 21.3886C391.222 23.1928 390.042 24.7618 388.311 25.4678C387.681 25.7423 387.013 25.86 386.305 25.86C386.108 25.86 385.872 25.86 385.675 25.8208C384.849 25.7423 384.023 25.4678 383.197 24.9971C382.213 24.448 381.23 23.6243 380.128 22.4476C379.027 23.6243 378.083 24.448 377.06 24.9971C376.234 25.4678 375.407 25.7031 374.581 25.8208C374.483 25.8208 374.375 25.8306 374.267 25.8404C374.158 25.8502 374.05 25.86 373.952 25.86C373.244 25.86 372.575 25.7423 371.945 25.4678C370.254 24.7618 368.995 23.2321 368.72 21.3886C368.602 20.4865 368.72 19.6236 369.034 18.7607C369.152 18.4077 369.27 18.1331 369.388 17.8586L369.388 17.8585C369.585 17.4271 369.782 16.9956 369.939 16.6034L369.978 16.5642C371.709 12.8772 373.519 9.15105 375.407 5.4641L375.486 5.30721C375.683 4.95421 375.879 4.56198 376.076 4.16975C376.129 4.08679 376.182 4.00238 376.236 3.91708L376.236 3.91694L376.236 3.91693L376.236 3.91693C376.46 3.55864 376.695 3.18461 376.981 2.83617C377.807 1.89482 378.909 1.3457 380.128 1.3457C381.308 1.3457 382.449 1.89482 383.236 2.87539C383.629 3.30685 383.905 3.77752 384.141 4.20897L384.141 4.20904C384.338 4.60124 384.534 4.99345 384.731 5.34644L384.81 5.50333C386.737 9.19028 388.547 12.9164 390.239 16.6034H390.278C390.435 16.9956 390.632 17.4271 390.829 17.8585ZM410.184 7.50369C410.184 8.40582 409.476 9.11183 408.571 9.11183C407.666 9.11183 406.958 8.40582 406.958 7.50369C406.958 6.60157 407.666 5.89556 408.571 5.89556C409.515 5.93478 410.184 6.64079 410.184 7.50369ZM403.614 10.72V11.1122C403.614 11.1122 402.867 10.1316 401.214 10.1316C398.539 10.1316 396.454 12.1712 396.454 14.9953C396.454 17.7801 398.539 19.8589 401.214 19.8589C402.867 19.8589 403.614 18.8391 403.614 18.8391V19.2705C403.614 19.4667 403.772 19.6236 403.968 19.6236H405.975V10.367H403.968C403.732 10.367 403.614 10.5239 403.614 10.72ZM401.608 17.6232C402.513 17.6232 403.26 17.1525 403.614 16.6034V13.3087C403.26 12.7988 402.473 12.2889 401.608 12.2889C400.034 12.2889 398.815 13.2695 398.815 14.956C398.815 16.6426 400.034 17.6232 401.608 17.6232ZM409.751 10.367V19.5843H407.391V10.367H409.751ZM440.279 11.1122C440.279 11.1122 441.066 10.1316 442.679 10.1316C445.354 10.1316 447.439 12.1712 447.439 14.956C447.439 17.7409 445.354 19.8197 442.679 19.8197C441.026 19.8197 440.279 18.7999 440.279 18.7999V19.2313C440.279 19.4274 440.122 19.5843 439.925 19.5843H437.919V5.93478H440.279V11.1122ZM442.285 17.584C441.38 17.584 440.672 17.1133 440.279 16.5642V13.2695C440.633 12.7596 441.42 12.2497 442.285 12.2497C443.859 12.2497 445.078 13.2302 445.078 14.9168C445.078 16.6034 443.859 17.584 442.285 17.584ZM436.699 19.6236V14.1324C436.699 12.5634 436.384 11.7005 435.598 11.0337C434.889 10.4454 434.024 10.1316 433.001 10.1316C432.096 10.1316 431.191 10.4062 430.483 11.1122V10.72C430.483 10.5239 430.326 10.367 430.129 10.367H428.241V19.6236H430.601V13.191C431.073 12.6419 431.821 12.2889 432.529 12.2889C433.827 12.2889 434.339 12.8772 434.339 14.4069V19.6236H436.699ZM422.497 10.1316C420.884 10.1316 420.098 11.1122 420.098 11.1122V5.93478H417.737V19.5843H419.744C419.94 19.5843 420.098 19.4274 420.098 19.2313V18.7999C420.098 18.7999 420.845 19.8197 422.497 19.8197C425.172 19.8197 427.257 17.7409 427.257 14.956C427.297 12.1712 425.212 10.1316 422.497 10.1316ZM420.098 16.5642C420.491 17.1133 421.199 17.584 422.104 17.584C423.678 17.584 424.897 16.6034 424.897 14.9168C424.897 13.2302 423.678 12.2497 422.104 12.2497C421.238 12.2497 420.452 12.7596 420.098 13.2695V16.5642ZM415.731 10.1316C416.439 10.1316 416.832 10.2493 416.832 10.2493V12.4458C416.832 12.4458 414.865 11.779 413.646 13.191V19.6236H411.285V10.367H413.292C413.488 10.367 413.646 10.5239 413.646 10.72V11.1122C414.039 10.6023 414.983 10.1316 415.731 10.1316ZM380.089 20.0158C378.751 18.3292 377.886 16.7603 377.61 15.4659C377.492 14.9168 377.453 14.4069 377.532 13.9755C377.571 13.5832 377.728 13.2302 377.925 12.9557C378.397 12.2889 379.184 11.8574 380.089 11.8574C380.994 11.8574 381.82 12.2497 382.253 12.9557C382.449 13.2695 382.607 13.5832 382.646 13.9755C382.725 14.4069 382.685 14.9168 382.567 15.4659C382.292 16.7603 381.426 18.3292 380.089 20.0158ZM387.681 24.0557C388.901 23.5851 389.766 22.4868 389.924 21.1925C390.003 20.5257 389.924 19.9373 389.806 19.3098C389.763 19.1824 389.709 19.055 389.65 18.9151C389.599 18.7966 389.545 18.6692 389.491 18.5253C389.393 18.3292 389.304 18.1233 389.216 17.9174C389.127 17.7114 389.039 17.5055 388.94 17.3094V17.2702C387.249 13.6225 385.439 9.89629 383.551 6.24856L383.472 6.09167L383.472 6.09162C383.275 5.69941 383.079 5.3072 382.882 4.95421C382.685 4.56198 382.449 4.16975 382.174 3.85597C381.662 3.26762 380.954 2.95384 380.207 2.95384C379.459 2.95384 378.751 3.26762 378.24 3.85597C377.965 4.20897 377.728 4.56198 377.532 4.95421C377.335 5.34644 377.138 5.73866 376.942 6.09167L376.863 6.24856C374.935 9.89629 373.126 13.6225 371.434 17.2702L371.395 17.3094C371.198 17.7016 371.001 18.1331 370.844 18.5253L370.844 18.5253C370.726 18.7999 370.608 19.0744 370.529 19.3098C370.254 20.0158 370.215 20.6041 370.293 21.2317C370.451 22.4868 371.316 23.5851 372.536 24.095C373.086 24.2911 373.716 24.4087 374.385 24.3303C375.014 24.2519 375.643 24.0557 376.273 23.7027C377.138 23.1928 378.043 22.4476 379.066 21.3101C377.453 19.3098 376.43 17.4663 376.076 15.8582C375.879 15.1129 375.84 14.4069 375.958 13.7793C376.076 13.1518 376.273 12.6027 376.627 12.0928C377.374 11.0337 378.673 10.367 380.089 10.367C381.505 10.367 382.803 10.9945 383.551 12.0928C383.905 12.6027 384.102 13.1518 384.22 13.7793C384.298 14.4069 384.259 15.1129 384.102 15.8582C383.708 17.4663 382.725 19.2705 381.112 21.2709C382.135 22.4084 383 23.1536 383.905 23.6635C384.574 24.0165 385.164 24.2126 385.793 24.2911C386.462 24.3695 387.091 24.2911 387.681 24.0557Z" fill="#5A7184"/>
</svg>
